<svg xmlns="http://www.w3.org/2000/svg" version="1.1" xmlns:xlink="http://www.w3.org/1999/xlink" xmlns:svgjs="http://svgjs.dev/svgjs" width="1000" height="750" viewBox="0 0 1000 750"><rect width="1000" height="750" fill="#000000"></rect><g transform="matrix(0.6460176991150443,0,0,0.6460176991150443,177.57244896860254,83.23687385666477)"><svg viewBox="0 0 273 247" data-background-color="#000000" preserveAspectRatio="xMidYMid meet" height="904" width="1000" xmlns="http://www.w3.org/2000/svg" xmlns:xlink="http://www.w3.org/1999/xlink"><g id="tight-bounds" transform="matrix(1,0,0,1,-0.24542161791652006,-0.09997365579206985)"><svg viewBox="0 0 273.49101934904604 247.2" height="247.2" width="273.49101934904604"><g><svg viewBox="0 0 273.49101934904604 247.2" height="247.2" width="273.49101934904604"><g><svg viewBox="0 0 273.49101934904604 247.2" height="247.2" width="273.49101934904604"><g id="textblocktransform"><svg viewBox="0 0 273.49101934904604 247.2" height="247.2" width="273.49101934904604" id="textblock"><g><svg viewBox="0 0 273.49101934904604 247.2" height="247.2" width="273.49101934904604"><path d="M272.851 53.02C271.565 27.36 267.901 20.227 267.901 20.227 256.65-6.202 242.61-0.506 229.997 3.292 207.728 3.446 185.549 9.091 163.331 12.119 116.698 12.581 69.665 4.986 23.263 23.717 18.904 29.464-4.522 24.846 0.775 56.304 2.164 69.39 7.23 83.913 7.075 95.922 7.77 98.026 8.734 93.202 9.145 96.23 10.585 104.39 12.938 100.541 14.867 105.365 12.18 118.246 14.108 128.971 15.947 140.21 12.707 143.135 8.554 141.749 6.69 151.449 6.497 158.479 5.455 157.145 4.311 156.837 3.475 156.632 1.791 157.402 2.074 159.608 3.038 167.152-1.102 171.514 1.495 178.904-0.292 186.91 2.73 193.838 2.318 202.511 2.267 204.255 2.55 205.744 3 206.154 4.993 208.361 2.087 212.672 2.395 217.342 22.839 249.262 45.018 227.195 65.962 241.872 71.401 231.608 67.312 245.516 69.485 243.36 71.182 240.846 72.417 251.263 74.332 245.362 74.628 243.668 74.178 239.665 75.232 240.435 75.785 240.846 76.274 240.743 76.351 238.382 76.467 234.841 75.451 237.048 75.181 235.201 78.1 225.861 77.38 248.081 80.118 247.158 79.99 244.438 79.193 240.538 80.825 241.051 82.445 237.151 82.497 233.918 83.937 242.693 83.988 244.592 84.246 245.926 84.657 246.85 89.157 237.305 93.631 250.237 98.35 245.926 101.243 241.205 104.02 248.492 106.952 246.696 107.98 245.259 109.022 242.693 110.012 247.004 122.136 247.928 135.058 244.079 146.552 247.158 177.269 241.41 210.094 249.518 242.482 241.923 250.119 238.998 258.052 234.841 265.496 231.506 265.496 231.506 271.526 222.371 271.526 181.316S272.812 145.393 273.005 112.703C273.198 80.013 274.098 78.679 272.812 53.02Z" opacity="1" fill="#ffffff" data-fill-palette-color="tertiary"></path><g transform="matrix(1,0,0,1,55.76832000000002,26.230666666666668)"><svg width="161.954379349046" viewBox="2 -28.760000228881836 24.1200008392334 29" height="194.73866666666666" data-palette-color="#0d0069"><path d="M26.12-8.5L24.66 0.24Q23.97 0.2 22.75 0.15 21.53 0.1 20.26 0.05 18.99 0 18.12 0L18.12 0 6.74 0Q5.76 0 4.79 0.02 3.81 0.05 2.88 0.15L2.88 0.15 2.88-2.39 18.31-27.88 18.31-25.83 10.06-25.83Q8.54-25.83 7.67-25.73 6.79-25.63 6.05-25.54L6.05-25.54 5.13-20.51 2.1-20.51 2-28.76Q3.17-28.71 4.52-28.69 5.86-28.66 6.79-28.66L6.79-28.66 20.75-28.66Q21.68-28.66 22.66-28.69 23.63-28.71 24.56-28.76L24.56-28.76 24.56-26.22 9.42-1.07 9.42-3.08 18.55-3.08Q19.43-3.08 19.97-3.13 20.51-3.17 21.14-3.32L21.14-3.32 23.19-8.84 26.12-8.5Z" opacity="1" transform="matrix(1,0,0,1,0,0)" fill="#0d0069" class="wordmark-text-0" data-fill-palette-color="quaternary" id="text-0"></path></svg></g></svg></g></svg></g></svg></g><g></g></svg></g><defs></defs></svg><rect width="273.49101934904604" height="247.2" fill="none" stroke="none" visibility="hidden"></rect></g></svg></g></svg>